# xmcd
#
# Track frame offsets:
#	150
#	20016
#	39930
#	58016
#	75769
#	96778
#	114213
#	140938
#	156156
#	179152
#
# Disc length: 2820 seconds
#
# Revision: 0
# Processed by: cddbd v1.5.2PL0 Copyright (c) Steve Scherf et al.
# Submitted via: EasyCDDAExtractor 10.0.4.1
#
DISCID=7d0b020a
DTITLE=Johannes Linstead - Mediterranea
DYEAR=2001
DGENRE=Blues
TTITLE0=Andalucia
TTITLE1=Evening Embrace
TTITLE2=Sangre Del Toro
TTITLE3=Ambrosia
TTITLE4=Adelita
TTITLE5=Tabu
TTITLE6=Hour Of The Lamps
TTITLE7=Motika
TTITLE8=Estrellas Sobre Ella
TTITLE9=Journey To Alcazaba
EXTD=
EXTT0=
EXTT1=
EXTT2=
EXTT3=
EXTT4=
EXTT5=
EXTT6=
EXTT7=
EXTT8=
EXTT9=
PLAYORDER=
